<svg width="426" height="138" viewBox="0 0 426 138" fill="none" xmlns="http://www.w3.org/2000/svg">
<path d="M125.502 84.7992H111.602V62.1992H115.902V81.0992H125.502V84.7992Z" fill="#00535B"/>
<path d="M154.101 76.9992H142.301C142.301 78.5992 142.701 79.7992 143.301 80.7992C143.901 81.7992 145.001 82.1992 146.401 82.1992C148.301 82.1992 149.501 81.2992 150.201 79.4992L153.701 80.0992C153.301 81.4992 152.401 82.6992 151.001 83.6992C149.601 84.6992 148.001 85.0992 146.101 85.0992C144.701 85.0992 143.301 84.7992 142.201 84.1992C141.001 83.5992 140.101 82.6992 139.601 81.6992C138.101 83.9992 136.001 85.1992 133.401 85.1992C131.401 85.1992 130.001 84.6992 128.901 83.6992C127.901 82.6992 127.301 81.4992 127.301 79.9992C127.301 78.0992 128.201 76.6992 129.901 75.7992C131.601 74.8992 134.001 74.3992 137.101 74.3992C137.501 74.3992 138.001 74.3992 138.601 74.4992C138.601 73.2992 138.501 72.5992 138.401 72.0992C138.301 71.6992 138.001 71.2992 137.401 70.9992C136.901 70.6992 136.101 70.4992 135.101 70.4992C133.101 70.4992 131.901 71.2992 131.401 72.7992L128.001 72.3992C128.801 69.2992 131.301 67.6992 135.501 67.6992C136.701 67.6992 137.601 67.7992 138.301 68.0992C139.001 68.3992 139.901 68.8992 140.901 69.5992C142.401 68.2992 144.101 67.6992 146.101 67.6992C148.601 67.6992 150.501 68.4992 151.801 69.9992C153.101 71.5992 153.801 73.4992 153.801 75.8992V76.9992H154.101ZM138.701 76.3992C136.001 76.4992 134.201 76.7992 133.101 77.2992C132.001 77.7992 131.601 78.6992 131.601 79.7992C131.601 80.5992 131.901 81.1992 132.401 81.5992C132.901 81.9992 133.601 82.1992 134.401 82.1992C135.301 82.1992 136.201 81.8992 137.001 81.3992C137.801 80.7992 138.201 80.1992 138.501 79.4992C138.601 78.7992 138.701 77.7992 138.701 76.3992ZM150.201 74.3992C150.101 72.9992 149.701 71.9992 149.001 71.3992C148.301 70.6992 147.401 70.3992 146.301 70.3992C144.101 70.3992 142.801 71.7992 142.401 74.4992H150.201V74.3992Z" fill="#00535B"/>
<path d="M161.601 84.7977H157.801V68.0977H161.201V72.0977C161.701 70.4977 162.401 69.3977 163.201 68.6977C164.001 67.9977 164.901 67.5977 165.801 67.5977C165.901 67.5977 166.101 67.5977 166.301 67.5977V71.5977C164.401 71.5977 163.101 72.1977 162.501 73.3977C161.901 74.5977 161.601 75.7977 161.601 76.9977V84.7977Z" fill="#00535B"/>
<path d="M173.003 66.0992H169.203V62.1992H173.003V66.0992ZM173.003 84.7992H169.203V68.0992H173.003V84.7992Z" fill="#00535B"/>
<path d="M191.603 84.7984H187.803V74.3984C187.803 73.2984 187.503 72.4984 187.003 71.8984C186.503 71.2984 185.903 71.0984 185.203 71.0984C184.203 71.0984 183.403 71.4984 182.603 72.3984C181.903 73.2984 181.503 74.5984 181.503 76.2984V84.8984H177.703V68.1984H181.103V72.0984C182.303 69.2984 184.003 67.8984 186.203 67.8984C187.703 67.8984 188.903 68.3984 190.003 69.2984C191.003 70.1984 191.603 71.8984 191.603 74.1984V84.7984Z" fill="#00535B"/>
<path d="M211.601 64.9008V67.8008H210.401C209.901 67.8008 209.401 67.9008 209.101 68.0008C208.701 68.1008 208.301 68.5008 208.001 69.2008C209.301 70.3008 210.001 71.5008 210.001 72.8008C210.001 74.3008 209.401 75.5008 208.101 76.5008C206.801 77.5008 205.201 78.0008 203.201 78.0008C202.301 78.0008 201.301 77.9008 200.101 77.6008C199.301 78.0008 198.901 78.5008 198.901 79.2008C198.901 79.6008 199.101 80.0008 199.501 80.3008C199.901 80.6008 200.401 80.8008 201.201 80.8008H206.201C207.901 80.8008 209.201 81.2008 210.201 82.1008C211.201 83.0008 211.601 84.1008 211.601 85.4008C211.601 87.0008 210.901 88.3008 209.401 89.3008C207.901 90.3008 205.801 90.9008 202.901 90.9008C197.501 90.9008 194.801 89.4008 194.801 86.4008C194.801 84.9008 195.601 83.8008 197.201 83.0008C196.201 82.1008 195.601 81.2008 195.601 80.2008C195.601 78.7008 196.501 77.6008 198.301 76.7008C196.801 75.8008 196.001 74.5008 196.001 72.8008C196.001 71.4008 196.601 70.2008 197.701 69.2008C198.801 68.2008 200.601 67.7008 202.901 67.7008C204.001 67.7008 205.001 67.8008 206.101 68.0008C206.601 65.9008 207.901 64.8008 210.101 64.8008H211.601V64.9008ZM198.901 83.8008C198.401 84.3008 198.101 84.8008 198.101 85.2008C198.101 86.0008 198.601 86.6008 199.501 87.2008C200.401 87.8008 201.801 88.1008 203.801 88.1008C206.701 88.1008 208.101 87.4008 208.101 85.9008C208.101 85.3008 207.801 84.9008 207.301 84.7008C206.801 84.4008 206.201 84.3008 205.601 84.3008H201.601C200.801 84.3008 199.901 84.1008 198.901 83.8008ZM203.001 75.6008C205.001 75.6008 206.101 74.6008 206.101 72.7008C206.101 72.0008 205.801 71.3008 205.301 70.8008C204.801 70.3008 204.001 70.0008 203.101 70.0008C202.101 70.0008 201.301 70.3008 200.801 70.8008C200.301 71.3008 200.001 72.0008 200.001 72.8008C200.001 73.6008 200.301 74.3008 200.801 74.8008C201.301 75.4008 202.001 75.6008 203.001 75.6008Z" fill="#00535B"/>
<path d="M212.102 80.8977L215.602 80.1977C216.102 81.5977 217.302 82.1977 219.202 82.1977C221.502 82.1977 222.702 81.4977 222.702 80.0977C222.702 79.6977 222.502 79.2977 222.202 78.9977C221.802 78.6976 221.402 78.4977 220.902 78.3977L217.902 77.7977C214.502 77.1977 212.802 75.4977 212.802 72.8977C212.802 71.3977 213.302 70.1977 214.402 69.0977C215.502 68.0977 217.102 67.5977 219.202 67.5977C222.702 67.5977 224.902 68.8977 225.702 71.4977L222.302 72.1977C221.902 70.8977 220.902 70.2977 219.302 70.2977C217.302 70.2977 216.302 70.8977 216.302 72.1977C216.302 73.0977 217.102 73.6976 218.702 73.9977L222.302 74.6977C225.102 75.2977 226.502 76.8976 226.502 79.4977C226.502 81.2977 225.802 82.6977 224.402 83.5977C223.002 84.4977 221.302 84.9977 219.302 84.9977C217.602 84.9977 216.102 84.6977 214.802 83.9977C213.502 83.2977 212.502 82.2977 212.102 80.8977Z" fill="#00535B"/>
<path d="M254.702 84.7984H250.702V74.3984C250.702 72.1984 249.702 71.1984 247.802 71.1984C246.702 71.1984 245.802 71.5984 245.102 72.3984C244.402 73.1984 244.102 74.3984 244.102 76.0984V84.8984H240.102V74.4984C240.102 72.2984 239.202 71.1984 237.402 71.1984C236.302 71.1984 235.402 71.5984 234.602 72.4984C233.902 73.3984 233.502 74.5984 233.502 76.0984V84.8984H229.602V68.1984H233.302V71.7984C234.502 69.1984 236.302 67.8984 238.902 67.8984C241.402 67.8984 243.002 69.1984 243.702 71.7984C245.002 69.1984 246.902 67.8984 249.302 67.8984C250.902 67.8984 252.202 68.3984 253.202 69.3984C254.202 70.3984 254.702 71.5984 254.702 73.0984V84.7984Z" fill="#00535B"/>
<path d="M263.202 66.0992H259.402V62.1992H263.202V66.0992ZM263.202 84.7992H259.402V68.0992H263.202V84.7992Z" fill="#00535B"/>
<path d="M271.702 84.7992H267.902V62.1992H271.702V84.7992Z" fill="#00535B"/>
<path d="M280.202 68.0992V84.4992C280.202 88.6992 278.302 90.6992 274.502 90.6992C273.902 90.6992 273.302 90.5992 272.602 90.4992V87.2992C273.102 87.3992 273.502 87.3992 273.802 87.3992C274.802 87.3992 275.602 87.1992 275.902 86.7992C276.302 86.3992 276.502 85.5992 276.502 84.4992V68.0992H280.202ZM280.202 66.0992H276.402V62.1992H280.202V66.0992Z" fill="#00535B"/>
<path d="M297.3 70.2008C298.1 71.3008 298.7 72.3008 299 73.2008C299.3 74.1008 299.4 75.2008 299.4 76.4008C299.4 79.1008 298.7 81.2008 297.2 82.8008C295.7 84.4008 293.8 85.2008 291.5 85.2008C290 85.2008 288.8 84.8008 287.6 84.1008L286.3 85.9008H284L286.2 82.8008C284.8 81.0008 284 78.9008 284 76.4008C284 73.9008 284.7 71.9008 286.1 70.3008C287.5 68.7008 289.5 67.8008 291.9 67.8008C293.4 67.8008 294.7 68.2008 295.9 68.9008L297.1 67.3008H299.4L297.3 70.2008ZM288.4 79.6008L293.9 71.5008C293.4 71.0008 292.6 70.8008 291.6 70.8008C290.5 70.8008 289.6 71.3008 288.9 72.3008C288.2 73.3008 287.9 74.6008 287.9 76.3008C287.9 77.4008 288.1 78.6008 288.4 79.6008ZM294.9 73.3008L289.5 81.3008C290.1 81.8008 290.8 82.0008 291.6 82.0008C294.1 82.0008 295.4 80.1008 295.4 76.2008C295.4 75.0008 295.3 74.0008 294.9 73.3008Z" fill="#00535B"/>
<path d="M301.102 80.8977L304.602 80.1977C305.102 81.5977 306.302 82.1977 308.202 82.1977C310.502 82.1977 311.702 81.4977 311.702 80.0977C311.702 79.6977 311.502 79.2977 311.202 78.9977C310.802 78.6976 310.402 78.4977 309.902 78.3977L306.902 77.7977C303.502 77.1977 301.802 75.4977 301.802 72.8977C301.802 71.3977 302.302 70.1977 303.402 69.0977C304.502 68.0977 306.102 67.5977 308.202 67.5977C311.702 67.5977 313.902 68.8977 314.702 71.4977L311.302 72.1977C310.902 70.8977 309.902 70.2977 308.302 70.2977C306.302 70.2977 305.302 70.8977 305.302 72.1977C305.302 73.0977 306.102 73.6976 307.702 73.9977L311.302 74.6977C314.102 75.2977 315.502 76.8976 315.502 79.4977C315.502 81.2977 314.802 82.6977 313.402 83.5977C312.002 84.4977 310.302 84.9977 308.302 84.9977C306.602 84.9977 305.102 84.6977 303.802 83.9977C302.502 83.2977 301.502 82.2977 301.102 80.8977Z" fill="#00535B"/>
<path d="M329.302 79.3992L332.702 79.8992C332.302 81.3992 331.402 82.6992 330.102 83.5992C328.802 84.5992 327.202 85.0992 325.302 85.0992C323.002 85.0992 321.102 84.2992 319.702 82.7992C318.302 81.1992 317.602 79.0992 317.602 76.4992C317.602 73.9992 318.302 71.8992 319.702 70.1992C321.102 68.4992 323.002 67.6992 325.502 67.6992C327.902 67.6992 329.702 68.4992 331.002 70.0992C332.302 71.6992 333.002 73.7992 333.002 76.3992V76.7992H321.502C321.502 77.8992 321.602 78.7992 321.802 79.4992C322.002 80.1992 322.402 80.7992 323.102 81.2992C323.702 81.7992 324.502 82.0992 325.502 82.0992C327.402 82.0992 328.702 81.1992 329.302 79.3992ZM329.102 74.3992C329.102 73.1992 328.702 72.1992 328.002 71.4992C327.302 70.6992 326.402 70.3992 325.402 70.3992C324.402 70.3992 323.502 70.7992 322.802 71.4992C322.102 72.1992 321.702 73.1992 321.602 74.4992H329.102V74.3992Z" fill="#00535B"/>
<path d="M350.502 84.7984H346.702V74.3984C346.702 73.2984 346.402 72.4984 345.902 71.8984C345.402 71.2984 344.802 71.0984 344.102 71.0984C343.102 71.0984 342.302 71.4984 341.502 72.3984C340.802 73.2984 340.402 74.5984 340.402 76.2984V84.8984H336.602V68.1984H340.002V72.0984C341.202 69.2984 342.902 67.8984 345.102 67.8984C346.602 67.8984 347.802 68.3984 348.902 69.2984C349.902 70.1984 350.502 71.8984 350.502 74.1984V84.7984Z" fill="#00535B"/>
<path d="M363.002 81.8V84.7C361.902 84.9 361.002 85.1 360.402 85.1C359.402 85.1 358.502 84.9 357.802 84.5C357.102 84.1 356.502 83.5 356.202 82.8C355.902 82.1 355.702 81 355.702 79.6V71H353.602V68.1H355.902L356.202 63.8L359.302 63.5V68.1H362.702V71H359.302V79.1C359.302 80.1 359.502 80.9 359.902 81.2C360.302 81.6 361.002 81.8 362.102 81.8C362.402 81.8 362.702 81.8 363.002 81.8Z" fill="#00535B"/>
<path d="M376.602 79.3992L380.002 79.8992C379.602 81.3992 378.702 82.6992 377.402 83.5992C376.102 84.5992 374.502 85.0992 372.602 85.0992C370.302 85.0992 368.402 84.2992 367.002 82.7992C365.602 81.1992 364.902 79.0992 364.902 76.4992C364.902 73.9992 365.602 71.8992 367.002 70.1992C368.402 68.4992 370.302 67.6992 372.802 67.6992C375.202 67.6992 377.002 68.4992 378.302 70.0992C379.602 71.6992 380.302 73.7992 380.302 76.3992V76.7992H368.802C368.802 77.8992 368.902 78.7992 369.102 79.4992C369.302 80.1992 369.702 80.7992 370.402 81.2992C371.002 81.7992 371.802 82.0992 372.802 82.0992C374.702 82.0992 375.902 81.1992 376.602 79.3992ZM376.302 74.3992C376.302 73.1992 375.902 72.1992 375.202 71.4992C374.502 70.6992 373.602 70.3992 372.602 70.3992C371.602 70.3992 370.702 70.7992 370.002 71.4992C369.302 72.1992 368.902 73.1992 368.802 74.4992H376.302V74.3992Z" fill="#00535B"/>
<path d="M387.702 84.7977H383.902V68.0977H387.302V72.0977C387.802 70.4977 388.502 69.3977 389.302 68.6977C390.102 67.9977 391.002 67.5977 391.902 67.5977C392.002 67.5977 392.202 67.5977 392.402 67.5977V71.5977C390.502 71.5977 389.202 72.1977 388.602 73.3977C388.002 74.5977 387.702 75.7977 387.702 76.9977V84.7977Z" fill="#00535B"/>
<path d="M406.001 79.3992L409.401 79.8992C409.001 81.3992 408.101 82.6992 406.801 83.5992C405.501 84.5992 403.901 85.0992 402.001 85.0992C399.701 85.0992 397.801 84.2992 396.401 82.7992C395.001 81.1992 394.301 79.0992 394.301 76.4992C394.301 73.9992 395.001 71.8992 396.401 70.1992C397.801 68.4992 399.701 67.6992 402.201 67.6992C404.601 67.6992 406.401 68.4992 407.701 70.0992C409.001 71.6992 409.701 73.7992 409.701 76.3992V76.7992H398.201C398.201 77.8992 398.301 78.7992 398.501 79.4992C398.701 80.1992 399.101 80.7992 399.801 81.2992C400.401 81.7992 401.201 82.0992 402.201 82.0992C404.101 82.0992 405.401 81.1992 406.001 79.3992ZM405.801 74.3992C405.801 73.1992 405.401 72.1992 404.701 71.4992C404.001 70.6992 403.101 70.3992 402.101 70.3992C401.101 70.3992 400.201 70.7992 399.501 71.4992C398.801 72.1992 398.401 73.1992 398.301 74.4992H405.801V74.3992Z" fill="#00535B"/>
<path d="M420.9 81.8V84.7C419.8 84.9 418.9 85.1 418.3 85.1C417.3 85.1 416.4 84.9 415.7 84.5C415 84.1 414.4 83.5 414.1 82.8C413.8 82.1 413.6 81 413.6 79.6V71H411.5V68.1H413.8L414.1 63.8L417.2 63.5V68.1H420.6V71H417.2V79.1C417.2 80.1 417.4 80.9 417.8 81.2C418.2 81.6 418.9 81.8 420 81.8C420.3 81.8 420.6 81.8 420.9 81.8Z" fill="#00535B"/>
<path d="M15.6 115.5H17.4V126.8C17.4 129.1 16.8 130.7 15.7 131.7C14.6 132.7 13.1 133.2 11.3 133.2C9.3 133.2 7.79999 132.7 6.89999 131.7C5.89999 130.7 5.5 129.1 5.5 126.9V115.6H7.7V126.9C7.7 128.2 7.9 129.2 8.2 129.7C8.5 130.2 9.00001 130.7 9.60001 130.9C10.2 131.2 10.9 131.3 11.6 131.3C12.9 131.3 13.9 130.9 14.6 130.2C15.3 129.5 15.6 128.4 15.6 126.8V115.5Z" fill="#00535B"/>
<path d="M31.3016 132.803H29.4016V124.603C29.4016 123.403 29.1016 122.603 28.6016 122.103C28.1016 121.603 27.5016 121.403 26.7016 121.403C25.7016 121.403 24.8016 121.803 24.1016 122.603C23.4016 123.403 23.1016 124.503 23.1016 125.803V132.803H21.1016V120.003H23.0016V122.403C24.0016 120.603 25.4016 119.703 27.0016 119.703C28.0016 119.703 28.8016 119.903 29.4016 120.403C30.0016 120.903 30.5016 121.403 30.8016 122.103C31.0016 122.703 31.2016 123.803 31.2016 125.403V132.803H31.3016Z" fill="#00535B"/>
<path d="M37.4984 115.5V117.7H35.3984V115.5H37.4984ZM37.3984 120V132.8H35.3984V120H37.3984Z" fill="#00535B"/>
<path d="M50.9008 120L46.5008 132.8H44.4008L39.8008 120H42.0008L45.6008 130.4L49.1008 120H50.9008Z" fill="#00535B"/>
<path d="M61.4 129.001L63.3 129.401C63 130.501 62.3 131.401 61.3 132.101C60.3 132.801 59.2 133.201 57.8 133.201C56.1 133.201 54.6 132.601 53.6 131.401C52.5 130.201 52 128.601 52 126.601C52 124.601 52.6 122.901 53.7 121.701C54.8 120.401 56.2 119.801 57.9 119.801C59.6 119.801 60.9 120.401 61.9 121.501C62.9 122.701 63.4 124.401 63.5 126.701H54.2C54.2 128.601 54.6 129.901 55.4 130.601C56.2 131.301 57.1 131.601 58 131.601C59.6 131.501 60.7 130.601 61.4 129.001ZM61.3 125.101C61.3 124.401 61.2 123.701 60.9 123.201C60.6 122.701 60.3 122.201 59.8 121.801C59.3 121.401 58.6 121.201 57.9 121.201C56.9 121.201 56.1 121.601 55.4 122.301C54.7 123.001 54.3 124.001 54.2 125.201H61.3V125.101Z" fill="#00535B"/>
<path d="M68.6016 132.803H66.6016V120.003H68.3016V123.003C68.9016 121.603 69.5016 120.703 70.2016 120.303C70.8016 119.903 71.5016 119.703 72.1016 119.703C72.3016 119.703 72.6016 119.703 72.9016 119.803V121.703H72.5016C71.4016 121.703 70.5016 122.103 69.8016 122.903C69.1016 123.703 68.7016 124.803 68.6016 126.103V132.803Z" fill="#00535B"/>
<path d="M73.6992 129.502L75.5992 129.102C75.9992 130.702 77.3992 131.502 79.5992 131.502C80.3992 131.502 81.0992 131.302 81.6992 130.902C82.2992 130.502 82.5992 130.002 82.5992 129.302C82.5992 128.302 81.8992 127.702 80.3992 127.402L77.6992 126.902C76.5992 126.702 75.7992 126.302 75.1992 125.702C74.5992 125.102 74.2992 124.302 74.2992 123.402C74.2992 122.302 74.6992 121.402 75.5992 120.702C76.4992 120.002 77.5992 119.602 78.9992 119.602C81.7992 119.602 83.4992 120.702 84.0992 122.902L82.2992 123.302C81.7992 122.002 80.6992 121.302 79.0992 121.302C78.2992 121.302 77.5992 121.502 77.0992 121.802C76.5992 122.102 76.2992 122.602 76.2992 123.202C76.2992 124.102 76.9992 124.702 78.2992 125.002L80.7992 125.402C83.3992 125.902 84.6992 127.102 84.6992 129.202C84.6992 130.402 84.1992 131.302 83.1992 132.002C82.1992 132.702 80.8992 133.102 79.2992 133.102C76.2992 133.102 74.3992 131.902 73.6992 129.502Z" fill="#00535B"/>
<path d="M89.7016 115.5V117.7H87.6016V115.5H89.7016ZM89.6016 120V132.8H87.6016V120H89.6016Z" fill="#00535B"/>
<path d="M99.4992 131.4V133C98.7992 133.1 98.1992 133.1 97.6992 133.1C95.1992 133.1 93.9992 131.8 93.9992 129.2V121.5H91.6992V119.9H93.9992L94.0992 116.7L95.9992 116.5V119.9H98.8992V121.5H95.9992V129.5C95.9992 130.8 96.6992 131.5 98.0992 131.5C98.3992 131.6 98.8992 131.5 99.4992 131.4Z" fill="#00535B"/>
<path d="M109.798 129.001L111.698 129.401C111.398 130.501 110.698 131.401 109.698 132.101C108.698 132.801 107.598 133.201 106.198 133.201C104.498 133.201 102.998 132.601 101.998 131.401C100.898 130.201 100.398 128.601 100.398 126.601C100.398 124.601 100.998 122.901 102.098 121.701C103.198 120.401 104.598 119.801 106.298 119.801C107.998 119.801 109.298 120.401 110.298 121.501C111.298 122.701 111.798 124.401 111.898 126.701H102.598C102.598 128.601 102.998 129.901 103.798 130.601C104.598 131.301 105.498 131.601 106.398 131.601C107.998 131.501 109.098 130.601 109.798 129.001ZM109.698 125.101C109.698 124.401 109.598 123.701 109.298 123.201C108.998 122.701 108.698 122.201 108.198 121.801C107.698 121.401 106.998 121.201 106.298 121.201C105.298 121.201 104.498 121.601 103.798 122.301C103.098 123.001 102.698 124.001 102.598 125.201H109.698V125.101Z" fill="#00535B"/>
<path d="M120.698 131.4V133C119.998 133.1 119.398 133.1 118.898 133.1C116.398 133.1 115.198 131.8 115.198 129.2V121.5H112.898V119.9H115.198L115.298 116.7L117.198 116.5V119.9H120.098V121.5H117.198V129.5C117.198 130.8 117.898 131.5 119.298 131.5C119.598 131.6 120.098 131.5 120.698 131.4Z" fill="#00535B"/>
<path d="M131.002 129.001L132.902 129.401C132.602 130.501 131.902 131.401 130.902 132.101C129.902 132.801 128.802 133.201 127.402 133.201C125.702 133.201 124.202 132.601 123.202 131.401C122.102 130.201 121.602 128.601 121.602 126.601C121.602 124.601 122.202 122.901 123.302 121.701C124.402 120.401 125.802 119.801 127.502 119.801C129.202 119.801 130.502 120.401 131.502 121.501C132.502 122.701 133.002 124.401 133.102 126.701H123.802C123.802 128.601 124.202 129.901 125.002 130.601C125.802 131.301 126.702 131.601 127.602 131.601C129.202 131.501 130.302 130.601 131.002 129.001ZM130.902 125.101C130.902 124.401 130.802 123.701 130.502 123.201C130.202 122.701 129.902 122.201 129.402 121.801C128.902 121.401 128.202 121.201 127.502 121.201C126.502 121.201 125.702 121.601 125.002 122.301C124.302 123.001 123.902 124.001 123.802 125.201H130.902V125.101Z" fill="#00535B"/>
<path d="M141.9 131.4V133C141.2 133.1 140.6 133.1 140.1 133.1C137.6 133.1 136.4 131.8 136.4 129.2V121.5H134V119.9H136.3L136.4 116.7L138.3 116.5V119.9H141.2V121.5H138.3V129.5C138.3 130.8 139 131.5 140.4 131.5C140.8 131.6 141.3 131.5 141.9 131.4Z" fill="#00535B"/>
<path d="M152.799 115.5V117.7H150.699V115.5H152.799ZM152.799 120V132.8H150.799V120H152.799Z" fill="#00535B"/>
<path d="M161.801 128.202L163.801 127.802C164.601 130.202 166.301 131.302 168.901 131.302C170.301 131.302 171.301 131.002 172.001 130.402C172.701 129.802 173.001 129.002 173.001 128.102C173.001 127.402 172.701 126.802 172.201 126.302C171.701 125.902 171.101 125.502 170.401 125.402L166.901 124.502C166.001 124.302 165.301 124.002 164.701 123.702C164.101 123.402 163.601 122.902 163.201 122.202C162.801 121.502 162.601 120.702 162.601 119.902C162.601 118.502 163.101 117.302 164.201 116.402C165.301 115.502 166.701 115.102 168.401 115.102C171.501 115.102 173.601 116.502 174.601 119.402L172.601 120.002C172.401 119.002 171.801 118.202 171.001 117.702C170.201 117.202 169.301 116.902 168.301 116.902C167.401 116.902 166.501 117.202 165.801 117.702C165.101 118.202 164.701 118.902 164.701 119.802C164.701 121.102 165.601 121.902 167.501 122.402L170.701 123.202C173.701 123.902 175.101 125.502 175.101 128.002C175.101 129.502 174.501 130.702 173.401 131.702C172.301 132.702 170.701 133.202 168.701 133.202C165.301 133.102 162.901 131.502 161.801 128.202Z" fill="#00535B"/>
<path d="M184.198 131.4V133C183.498 133.1 182.898 133.1 182.398 133.1C179.898 133.1 178.698 131.8 178.698 129.2V121.5H176.398V119.9H178.698L178.798 116.7L180.698 116.5V119.9H183.598V121.5H180.698V129.5C180.698 130.8 181.398 131.5 182.798 131.5C183.098 131.6 183.598 131.5 184.198 131.4Z" fill="#00535B"/>
<path d="M196.501 132.802H194.501C194.401 132.402 194.301 131.602 194.301 130.502C193.401 132.302 191.901 133.202 189.801 133.202C188.401 133.202 187.301 132.802 186.501 132.102C185.701 131.302 185.301 130.402 185.301 129.402C185.301 128.102 185.801 127.002 186.901 126.202C188.001 125.402 189.901 125.002 192.501 125.002C192.901 125.002 193.401 125.002 194.201 125.102C194.201 124.102 194.101 123.402 194.001 122.902C193.801 122.402 193.501 122.102 193.001 121.802C192.501 121.502 191.801 121.402 191.001 121.402C189.001 121.402 187.801 122.202 187.501 123.702L185.701 123.402C186.101 121.002 188.001 119.902 191.401 119.902C193.201 119.902 194.401 120.302 195.201 121.102C195.901 121.902 196.301 123.202 196.301 125.202V130.602C196.201 131.202 196.301 132.002 196.501 132.802ZM194.301 126.402C193.501 126.302 192.901 126.302 192.401 126.302C190.801 126.302 189.601 126.602 188.701 127.102C187.801 127.602 187.401 128.402 187.401 129.402C187.401 130.002 187.601 130.602 188.101 131.002C188.601 131.402 189.201 131.702 190.101 131.702C191.301 131.702 192.301 131.302 193.101 130.402C193.901 129.502 194.301 128.502 194.301 127.302C194.401 127.002 194.301 126.702 194.301 126.402Z" fill="#00535B"/>
<path d="M209.1 120L204.7 132.8H202.6L198 120H200.2L203.8 130.4L207.3 120H209.1Z" fill="#00535B"/>
<path d="M221.302 132.802H219.302C219.202 132.402 219.102 131.602 219.102 130.502C218.202 132.302 216.702 133.202 214.602 133.202C213.202 133.202 212.102 132.802 211.302 132.102C210.502 131.302 210.102 130.402 210.102 129.402C210.102 128.102 210.602 127.002 211.702 126.202C212.802 125.402 214.702 125.002 217.302 125.002C217.702 125.002 218.202 125.002 219.002 125.102C219.002 124.102 218.902 123.402 218.802 122.902C218.602 122.402 218.302 122.102 217.802 121.802C217.302 121.502 216.602 121.402 215.802 121.402C213.802 121.402 212.602 122.202 212.302 123.702L210.502 123.402C210.902 121.002 212.802 119.902 216.202 119.902C218.002 119.902 219.202 120.302 220.002 121.102C220.702 121.902 221.102 123.202 221.102 125.202V130.602C221.102 131.202 221.202 132.002 221.302 132.802ZM219.102 126.402C218.302 126.302 217.702 126.302 217.202 126.302C215.602 126.302 214.402 126.602 213.502 127.102C212.602 127.602 212.202 128.402 212.202 129.402C212.202 130.002 212.402 130.602 212.902 131.002C213.402 131.402 214.002 131.702 214.902 131.702C216.102 131.702 217.102 131.302 217.902 130.402C218.702 129.502 219.102 128.502 219.102 127.302C219.202 127.002 219.202 126.702 219.102 126.402Z" fill="#00535B"/>
<path d="M235.302 132.803H233.402V124.603C233.402 123.403 233.102 122.603 232.602 122.103C232.102 121.603 231.502 121.403 230.702 121.403C229.702 121.403 228.802 121.803 228.102 122.603C227.402 123.403 227.102 124.503 227.102 125.803V132.803H225.102V120.003H227.002V122.403C228.002 120.603 229.402 119.703 231.002 119.703C232.002 119.703 232.802 119.903 233.402 120.403C234.002 120.903 234.502 121.403 234.802 122.103C235.002 122.703 235.202 123.803 235.202 125.403V132.803H235.302Z" fill="#00535B"/>
<path d="M249.8 118.001V119.601C248.9 119.601 248.3 119.701 248 119.901C247.7 120.101 247.5 120.501 247.4 121.001C248.2 121.901 248.6 123.001 248.6 124.101C248.6 125.301 248.2 126.301 247.3 127.101C246.4 127.901 245.2 128.401 243.7 128.401C243.4 128.401 243.1 128.401 242.8 128.301C242.3 128.201 242 128.201 241.9 128.201C241.7 128.201 241.4 128.301 241.1 128.501C240.8 128.701 240.6 129.001 240.6 129.401C240.6 129.901 240.8 130.201 241.3 130.401C241.8 130.601 242.9 130.601 244.6 130.701C246.1 130.701 247.1 130.801 247.8 131.001C248.5 131.201 249.1 131.501 249.6 132.001C250.1 132.501 250.3 133.201 250.3 134.001C250.3 136.401 248.2 137.701 243.9 137.701C241.9 137.701 240.4 137.401 239.4 136.801C238.4 136.201 238 135.201 238 134.201C238 133.001 238.7 132.101 240 131.601C239.2 131.101 238.7 130.401 238.7 129.501C238.7 128.501 239.3 127.801 240.5 127.201C239.4 126.301 238.8 125.201 238.8 123.801C238.8 122.501 239.3 121.501 240.2 120.701C241.1 119.901 242.3 119.501 243.7 119.501C244.7 119.501 245.5 119.701 246.3 120.001C246.4 119.201 246.7 118.601 247.2 118.301C247.7 118.001 248.4 117.801 249.3 117.801C249.4 117.901 249.6 118.001 249.8 118.001ZM241.4 132.301C240.5 132.701 240 133.301 240 134.101C240 134.801 240.4 135.301 241.1 135.601C241.9 136.001 242.8 136.101 244 136.101C245.1 136.101 246.1 135.901 247 135.601C247.9 135.301 248.4 134.801 248.4 134.001C248.4 133.601 248.3 133.301 248 133.001C247.7 132.701 247.4 132.601 246.9 132.501C246.4 132.401 245.6 132.401 244.4 132.301C243.1 132.401 242 132.301 241.4 132.301ZM243.7 126.801C244.5 126.801 245.2 126.501 245.8 126.001C246.4 125.501 246.6 124.801 246.6 124.001C246.6 123.201 246.3 122.501 245.8 121.901C245.3 121.301 244.6 121.101 243.8 121.101C243 121.101 242.4 121.401 241.8 121.901C241.2 122.401 240.9 123.101 240.9 124.001C240.9 124.801 241.2 125.501 241.7 126.001C242.2 126.601 242.9 126.801 243.7 126.801Z" fill="#00535B"/>
<path d="M260.701 129.001L262.601 129.401C262.301 130.501 261.601 131.401 260.601 132.101C259.601 132.801 258.501 133.201 257.101 133.201C255.401 133.201 253.901 132.601 252.901 131.401C251.801 130.201 251.301 128.601 251.301 126.601C251.301 124.601 251.901 122.901 253.001 121.701C254.101 120.401 255.501 119.801 257.201 119.801C258.901 119.801 260.201 120.401 261.201 121.501C262.201 122.701 262.701 124.401 262.801 126.701H253.501C253.501 128.601 253.901 129.901 254.701 130.601C255.501 131.301 256.401 131.601 257.301 131.601C258.901 131.501 260.001 130.601 260.701 129.001ZM260.601 125.101C260.601 124.401 260.501 123.701 260.201 123.201C259.901 122.701 259.601 122.201 259.101 121.801C258.601 121.401 257.901 121.201 257.201 121.201C256.201 121.201 255.401 121.601 254.701 122.301C254.001 123.001 253.601 124.001 253.501 125.201H260.601V125.101Z" fill="#00535B"/>
<path d="M267.898 132.803H265.898V120.003H267.598V123.003C268.198 121.603 268.798 120.703 269.498 120.303C270.098 119.903 270.798 119.703 271.398 119.703C271.598 119.703 271.898 119.703 272.198 119.803V121.703H271.798C270.698 121.703 269.798 122.103 269.098 122.903C268.398 123.703 267.998 124.803 267.898 126.103V132.803Z" fill="#00535B"/>
<path d="M0.5 104.898H425.6V101.398H0.5" fill="#00535B"/>
<path d="M52.7 39.4C63.58 39.4 72.4 30.58 72.4 19.7C72.4 8.81999 63.58 0 52.7 0C41.82 0 33 8.81999 33 19.7C33 30.58 41.82 39.4 52.7 39.4Z" fill="#00535B"/>
<path d="M13.1 60.5984C20.3349 60.5984 26.2 54.7333 26.2 47.4984C26.2 40.2635 20.3349 34.3984 13.1 34.3984C5.86508 34.3984 0 40.2635 0 47.4984C0 54.7333 5.86508 60.5984 13.1 60.5984Z" fill="#00535B"/>
<path d="M42.4016 85.2016C42.4016 76.2016 49.7016 68.9016 58.7016 68.9016C67.7016 68.9016 75.0016 76.1016 75.0016 85.2016H96.8015C95.0015 65.8016 78.6016 50.6016 58.7016 50.6016C38.8016 50.6016 22.4016 65.8016 20.6016 85.2016H42.4016Z" fill="#00535B"/>
</svg>
