<?xml version="1.0" encoding="UTF-8"?>
<svg xmlns="http://www.w3.org/2000/svg" width="1400px" height="576px" viewBox="0 0 2500 1029" fill="none">
  <rect width="2500" height="1029" fill="white"></rect>
  <path d="M923.444 491.799C928.884 493.186 934.164 494.679 939.284 496.279C944.51 497.879 949.15 499.906 953.204 502.359C957.257 504.813 960.457 508.013 962.804 511.959C965.15 515.799 966.324 520.759 966.324 526.839C966.324 533.346 964.777 539.213 961.684 544.439C958.697 549.666 954.11 553.773 947.924 556.759C941.737 559.746 933.897 561.239 924.404 561.239C914.697 561.239 906.11 559.639 898.644 556.439C891.284 553.239 885.417 548.599 881.044 542.519C876.67 536.439 874.27 529.079 873.844 520.439H892.084C892.51 525.453 893.844 529.933 896.084 533.879C898.43 537.826 901.844 540.866 906.324 542.999C910.91 545.133 916.777 546.199 923.924 546.199C930.11 546.199 934.91 545.399 938.324 543.799C941.737 542.093 944.19 539.853 945.684 537.079C947.177 534.306 947.924 531.213 947.924 527.799C947.924 522.999 946.697 519.319 944.244 516.759C941.79 514.199 938.164 512.173 933.364 510.679C928.67 509.186 922.857 507.586 915.924 505.879C911.444 504.706 906.964 503.373 902.484 501.879C898.11 500.386 894.057 498.466 890.324 496.119C886.697 493.666 883.764 490.679 881.524 487.159C879.39 483.533 878.324 478.999 878.324 473.559C878.324 466.946 879.924 461.346 883.124 456.759C886.43 452.066 891.07 448.493 897.044 446.039C903.017 443.586 910.11 442.359 918.324 442.359C926.964 442.359 934.537 443.799 941.044 446.679C947.55 449.453 952.67 453.559 956.404 458.999C960.244 464.439 962.484 470.999 963.124 478.679H944.724C943.764 471.746 941.204 466.466 937.044 462.839C932.99 459.213 926.75 457.399 918.324 457.399C913.63 457.399 909.63 457.986 906.324 459.159C903.124 460.333 900.67 462.039 898.964 464.279C897.364 466.519 896.564 469.293 896.564 472.599C896.564 476.759 897.79 480.013 900.244 482.359C902.697 484.706 905.95 486.573 910.004 487.959C914.057 489.346 918.537 490.626 923.444 491.799Z" fill="black"></path>
  <path d="M1003.58 451.159V536.439C1003.58 539.319 1003.85 541.506 1004.38 542.999C1005.02 544.493 1005.98 545.559 1007.26 546.199C1008.65 546.733 1010.46 546.999 1012.7 546.999C1013.98 546.999 1015.05 546.946 1015.9 546.839C1016.86 546.733 1018.03 546.573 1019.42 546.359V558.999C1017.39 559.319 1015.63 559.533 1014.14 559.639C1012.75 559.853 1011.15 559.959 1009.34 559.959C1004.97 559.959 1001.13 559.266 997.821 557.879C994.621 556.493 992.168 554.093 990.461 550.679C988.755 547.159 987.901 542.253 987.901 535.959V451.159H1003.58ZM976.061 477.399H1019.26V490.359H976.061V477.399Z" fill="black"></path>
  <path d="M1034.42 560.759L1028.66 554.839L1107.54 475.639L1113.46 481.559L1034.42 560.759ZM1071.06 561.399C1062.64 561.399 1055.38 559.586 1049.3 555.959C1043.22 552.226 1038.53 547.106 1035.22 540.599C1031.92 534.093 1030.26 526.626 1030.26 518.199C1030.26 511.799 1031.17 505.986 1032.98 500.759C1034.9 495.426 1037.62 490.839 1041.14 486.999C1044.77 483.053 1049.09 480.066 1054.1 478.039C1059.22 475.906 1064.93 474.839 1071.22 474.839C1079.76 474.839 1087.01 476.706 1092.98 480.439C1099.06 484.066 1103.7 489.133 1106.9 495.639C1110.21 502.039 1111.86 509.506 1111.86 518.039C1111.86 524.546 1110.96 530.466 1109.14 535.799C1107.33 541.026 1104.61 545.559 1100.98 549.399C1097.46 553.239 1093.2 556.226 1088.18 558.359C1083.17 560.386 1077.46 561.399 1071.06 561.399ZM1071.22 548.439C1075.38 548.439 1078.96 547.693 1081.94 546.199C1085.04 544.706 1087.6 542.573 1089.62 539.799C1091.65 536.919 1093.14 533.666 1094.1 530.039C1095.06 526.413 1095.54 522.466 1095.54 518.199C1095.54 512.439 1094.64 507.319 1092.82 502.839C1091.12 498.253 1088.45 494.626 1084.82 491.959C1081.3 489.293 1076.77 487.959 1071.22 487.959C1066.96 487.959 1063.28 488.706 1060.18 490.199C1057.09 491.693 1054.53 493.826 1052.5 496.599C1050.58 499.373 1049.09 502.626 1048.02 506.359C1047.06 509.986 1046.58 513.933 1046.58 518.199C1046.58 523.853 1047.44 528.973 1049.14 533.559C1050.96 538.146 1053.68 541.773 1057.3 544.439C1061.04 547.106 1065.68 548.439 1071.22 548.439Z" fill="black"></path>
  <path d="M1149.31 451.159V536.439C1149.31 539.319 1149.58 541.506 1150.11 542.999C1150.75 544.493 1151.71 545.559 1152.99 546.199C1154.38 546.733 1156.19 546.999 1158.43 546.999C1159.71 546.999 1160.78 546.946 1161.63 546.839C1162.59 546.733 1163.76 546.573 1165.15 546.359V558.999C1163.12 559.319 1161.36 559.533 1159.87 559.639C1158.48 559.853 1156.88 559.959 1155.07 559.959C1150.7 559.959 1146.86 559.266 1143.55 557.879C1140.35 556.493 1137.9 554.093 1136.19 550.679C1134.48 547.159 1133.63 542.253 1133.63 535.959V451.159H1149.31ZM1121.79 477.399H1164.99V490.359H1121.79V477.399Z" fill="black"></path>
  <path d="M1200.93 451.159V536.439C1200.93 539.319 1201.19 541.506 1201.73 542.999C1202.37 544.493 1203.33 545.559 1204.61 546.199C1205.99 546.733 1207.81 546.999 1210.05 546.999C1211.33 546.999 1212.39 546.946 1213.25 546.839C1214.21 546.733 1215.38 546.573 1216.77 546.359V558.999C1214.74 559.319 1212.98 559.533 1211.49 559.639C1210.1 559.853 1208.5 559.959 1206.69 559.959C1202.31 559.959 1198.47 559.266 1195.17 557.879C1191.97 556.493 1189.51 554.093 1187.81 550.679C1186.1 547.159 1185.25 542.253 1185.25 535.959V451.159H1200.93ZM1173.41 477.399H1216.61V490.359H1173.41V477.399Z" fill="black"></path>
  <path d="M1266.17 561.399C1257.53 561.399 1250.17 559.533 1244.09 555.799C1238.11 552.066 1233.58 546.946 1230.49 540.439C1227.39 533.826 1225.85 526.359 1225.85 518.039C1225.85 511.639 1226.75 505.826 1228.57 500.599C1230.49 495.266 1233.15 490.679 1236.57 486.839C1240.09 482.999 1244.3 480.066 1249.21 478.039C1254.22 475.906 1259.87 474.839 1266.17 474.839C1274.49 474.839 1281.47 476.546 1287.13 479.959C1292.89 483.373 1297.26 488.226 1300.25 494.519C1303.34 500.706 1304.89 508.013 1304.89 516.439C1304.89 517.506 1304.89 518.626 1304.89 519.799C1304.89 520.866 1304.83 521.719 1304.73 522.359H1233.69V510.039H1288.41C1288.41 506.839 1287.87 503.906 1286.81 501.239C1285.74 498.466 1284.19 496.066 1282.17 494.039C1280.25 492.013 1277.9 490.466 1275.13 489.399C1272.35 488.226 1269.21 487.639 1265.69 487.639C1261.1 487.639 1256.99 488.653 1253.37 490.679C1249.85 492.706 1247.07 495.533 1245.05 499.159C1243.02 502.786 1242.01 507.053 1242.01 511.959C1242.01 513.666 1242.01 515.373 1242.01 517.079C1242.01 518.679 1242.01 520.173 1242.01 521.559C1242.01 526.253 1242.91 530.626 1244.73 534.679C1246.54 538.733 1249.26 542.093 1252.89 544.759C1256.51 547.319 1261.05 548.599 1266.49 548.599C1271.29 548.599 1275.13 547.746 1278.01 546.039C1280.99 544.333 1283.23 542.359 1284.73 540.119C1286.33 537.773 1287.39 535.693 1287.93 533.879H1303.77C1302.38 539.106 1300.09 543.799 1296.89 547.959C1293.69 552.119 1289.53 555.426 1284.41 557.879C1279.39 560.226 1273.31 561.399 1266.17 561.399Z" fill="black"></path>
  <path d="M1340.56 451.159V536.439C1340.56 539.319 1340.83 541.506 1341.36 542.999C1342 544.493 1342.96 545.559 1344.24 546.199C1345.63 546.733 1347.44 546.999 1349.68 546.999C1350.96 546.999 1352.03 546.946 1352.88 546.839C1353.84 546.733 1355.02 546.573 1356.4 546.359V558.999C1354.38 559.319 1352.62 559.533 1351.12 559.639C1349.74 559.853 1348.14 559.959 1346.32 559.959C1341.95 559.959 1338.11 559.266 1334.8 557.879C1331.6 556.493 1329.15 554.093 1327.44 550.679C1325.74 547.159 1324.88 542.253 1324.88 535.959V451.159H1340.56ZM1313.04 477.399H1356.24V490.359H1313.04V477.399Z" fill="black"></path>
  <path d="M1432.41 561.239C1424.3 561.239 1417.8 559.106 1412.89 554.839C1408.09 550.466 1405.69 544.813 1405.69 537.879C1405.69 533.293 1406.49 529.453 1408.09 526.359C1409.8 523.266 1412.14 520.706 1415.13 518.679C1418.12 516.653 1421.69 514.999 1425.85 513.719C1430.12 512.439 1434.76 511.319 1439.77 510.359C1442.97 509.719 1445.85 509.133 1448.41 508.599C1450.97 508.066 1453.16 507.373 1454.97 506.519C1456.78 505.666 1458.12 504.599 1458.97 503.319C1459.93 502.039 1460.41 500.386 1460.41 498.359C1460.41 495.373 1459.29 492.813 1457.05 490.679C1454.92 488.546 1450.86 487.479 1444.89 487.479C1437.74 487.479 1432.84 488.653 1430.17 490.999C1427.5 493.346 1425.96 497.293 1425.53 502.839H1409.53C1409.85 497.613 1411.24 492.919 1413.69 488.759C1416.25 484.493 1420.09 481.133 1425.21 478.679C1430.44 476.119 1437.21 474.839 1445.53 474.839C1451.18 474.839 1456.25 475.746 1460.73 477.559C1465.32 479.266 1468.94 482.146 1471.61 486.199C1474.38 490.253 1475.77 495.853 1475.77 502.999V540.439C1475.77 543.426 1476.04 545.666 1476.57 547.159C1477.1 548.653 1478.12 549.399 1479.61 549.399C1479.82 549.399 1480.09 549.399 1480.41 549.399C1480.73 549.399 1481.1 549.346 1481.53 549.239V558.839C1480.14 559.159 1478.76 559.373 1477.37 559.479C1476.09 559.693 1474.81 559.799 1473.53 559.799C1469.69 559.799 1466.7 558.946 1464.57 557.239C1462.44 555.426 1461.16 552.173 1460.73 547.479H1460.41C1457.64 551.639 1453.9 554.999 1449.21 557.559C1444.62 560.013 1439.02 561.239 1432.41 561.239ZM1435.93 548.599C1440.62 548.599 1444.78 547.799 1448.41 546.199C1452.14 544.599 1455.08 542.199 1457.21 538.999C1459.34 535.799 1460.41 531.853 1460.41 527.159V515.479C1459.56 516.226 1458.22 516.973 1456.41 517.719C1454.7 518.359 1452.62 518.999 1450.17 519.639C1447.82 520.173 1445.26 520.759 1442.49 521.399C1437.69 522.359 1433.74 523.533 1430.65 524.919C1427.66 526.199 1425.48 527.799 1424.09 529.719C1422.81 531.533 1422.17 533.879 1422.17 536.759C1422.17 540.599 1423.24 543.533 1425.37 545.559C1427.61 547.586 1431.13 548.599 1435.93 548.599Z" fill="black"></path>
  <path d="M1483.62 477.399H1500.42L1521.7 542.839H1522.02L1542.98 477.399H1559.46L1530.34 558.999H1512.74L1483.62 477.399Z" fill="black"></path>
  <path d="M897.844 655.199H947.764V670.399H897.844V719.999H880.244V605.599H959.604V620.799H897.844V655.199Z" fill="black"></path>
  <path d="M1000.34 722.399C991.81 722.399 984.504 720.586 978.424 716.959C972.344 713.226 967.65 708.106 964.344 701.599C961.144 695.093 959.544 687.626 959.544 679.199C959.544 672.799 960.45 666.986 962.264 661.759C964.077 656.426 966.744 651.839 970.264 647.999C973.89 644.053 978.21 641.066 983.224 639.039C988.344 636.906 994.05 635.839 1000.34 635.839C1008.88 635.839 1016.13 637.706 1022.1 641.439C1028.18 645.066 1032.88 650.133 1036.18 656.639C1039.49 663.039 1041.14 670.506 1041.14 679.039C1041.14 685.546 1040.18 691.466 1038.26 696.799C1036.45 702.026 1033.73 706.559 1030.1 710.399C1026.58 714.239 1022.32 717.226 1017.3 719.359C1012.29 721.386 1006.64 722.399 1000.34 722.399ZM1000.34 709.439C1004.61 709.439 1008.24 708.693 1011.22 707.199C1014.32 705.706 1016.82 703.573 1018.74 700.799C1020.77 697.919 1022.26 694.666 1023.22 691.039C1024.29 687.413 1024.82 683.466 1024.82 679.199C1024.82 673.439 1023.92 668.319 1022.1 663.839C1020.4 659.253 1017.73 655.626 1014.1 652.959C1010.48 650.293 1005.89 648.959 1000.34 648.959C996.184 648.959 992.557 649.706 989.464 651.199C986.37 652.693 983.81 654.826 981.784 657.599C979.757 660.373 978.264 663.626 977.304 667.359C976.344 670.986 975.864 674.933 975.864 679.199C975.864 684.853 976.717 689.973 978.424 694.559C980.13 699.146 982.797 702.773 986.424 705.439C990.157 708.106 994.797 709.439 1000.34 709.439Z" fill="black"></path>
  <path d="M1056.4 638.399H1072.08V719.999H1056.4V638.399ZM1101.84 651.999C1100.77 651.786 1099.81 651.679 1098.96 651.679C1098.21 651.573 1097.41 651.519 1096.56 651.519C1091.76 651.519 1087.49 652.639 1083.76 654.879C1080.13 657.013 1077.25 660.053 1075.12 663.999C1073.09 667.946 1072.08 672.533 1072.08 677.759H1064.4L1060.88 653.919H1072.4C1074.53 648.799 1077.3 644.639 1080.72 641.439C1084.24 638.133 1088.77 636.479 1094.32 636.479C1095.81 636.479 1097.14 636.533 1098.32 636.639C1099.49 636.639 1100.66 636.746 1101.84 636.959V651.999Z" fill="black"></path>
  <path d="M1149.46 670.719C1153.2 671.679 1156.88 672.693 1160.5 673.759C1164.24 674.826 1167.6 676.319 1170.58 678.239C1173.68 680.159 1176.13 682.613 1177.94 685.599C1179.76 688.586 1180.66 692.319 1180.66 696.799C1180.66 702.133 1179.33 706.719 1176.66 710.559C1174.1 714.293 1170.32 717.173 1165.3 719.199C1160.29 721.226 1154.21 722.239 1147.06 722.239C1138.85 722.239 1131.97 720.959 1126.42 718.399C1120.98 715.839 1116.82 712.319 1113.94 707.839C1111.17 703.359 1109.68 698.346 1109.46 692.799H1125.3C1125.62 695.999 1126.48 698.879 1127.86 701.439C1129.36 703.999 1131.65 706.026 1134.74 707.519C1137.84 708.906 1141.89 709.599 1146.9 709.599C1151.49 709.599 1155.01 709.013 1157.46 707.839C1160.02 706.666 1161.78 705.173 1162.74 703.359C1163.81 701.439 1164.34 699.519 1164.34 697.599C1164.34 694.186 1163.28 691.679 1161.14 690.079C1159.01 688.373 1156.34 687.146 1153.14 686.399C1149.94 685.546 1146.53 684.746 1142.9 683.999C1139.38 683.146 1135.81 682.239 1132.18 681.279C1128.56 680.213 1125.25 678.773 1122.26 676.959C1119.28 675.146 1116.88 672.853 1115.06 670.079C1113.25 667.306 1112.34 663.786 1112.34 659.519C1112.34 654.826 1113.57 650.719 1116.02 647.199C1118.48 643.679 1122 640.959 1126.58 639.039C1131.28 637.013 1136.93 635.999 1143.54 635.999C1150.9 635.999 1157.04 637.173 1161.94 639.519C1166.96 641.866 1170.74 645.066 1173.3 649.119C1175.86 653.066 1177.3 657.386 1177.62 662.079H1161.78C1161.46 659.946 1160.72 657.866 1159.54 655.839C1158.48 653.813 1156.72 652.106 1154.26 650.719C1151.81 649.333 1148.29 648.639 1143.7 648.639C1140.18 648.639 1137.3 649.066 1135.06 649.919C1132.93 650.773 1131.33 651.946 1130.26 653.439C1129.2 654.933 1128.66 656.746 1128.66 658.879C1128.66 661.653 1129.57 663.733 1131.38 665.119C1133.2 666.506 1135.7 667.573 1138.9 668.319C1142.1 668.959 1145.62 669.759 1149.46 670.719Z" fill="black"></path>
  <path d="M1194.94 719.999V605.599H1210.62V679.199L1204.54 678.879L1246.3 638.399H1264.22L1205.34 694.559L1210.62 682.239V719.999H1194.94ZM1249.18 719.999L1220.22 674.879L1230.94 665.279L1267.58 719.999H1249.18Z" fill="black"></path>
  <path d="M1278.59 719.999V638.399H1294.27V719.999H1278.59ZM1332.83 667.679C1332.83 664.053 1332.24 660.853 1331.07 658.079C1330 655.306 1328.24 653.173 1325.79 651.679C1323.44 650.186 1320.29 649.439 1316.35 649.439C1312.93 649.439 1309.84 649.919 1307.07 650.879C1304.4 651.839 1302.11 653.226 1300.19 655.039C1298.27 656.853 1296.77 659.039 1295.71 661.599C1294.75 664.053 1294.27 666.826 1294.27 669.919H1288.83V648.639H1294.59C1296.72 645.546 1299.97 642.666 1304.35 639.999C1308.72 637.333 1314.43 635.999 1321.47 635.999C1326.59 635.999 1331.17 637.013 1335.23 639.039C1339.28 640.959 1342.53 643.946 1344.99 647.999C1347.44 651.946 1348.67 657.066 1348.67 663.359V719.999H1332.83V667.679Z" fill="black"></path>
  <path d="M1367.38 719.999V638.399H1383.06V719.999H1367.38ZM1365.94 615.679C1365.94 613.226 1366.74 611.093 1368.34 609.279C1369.94 607.466 1372.23 606.559 1375.22 606.559C1378.21 606.559 1380.5 607.466 1382.1 609.279C1383.7 611.093 1384.5 613.226 1384.5 615.679C1384.5 618.133 1383.7 620.266 1382.1 622.079C1380.5 623.893 1378.21 624.799 1375.22 624.799C1372.23 624.799 1369.94 623.893 1368.34 622.079C1366.74 620.266 1365.94 618.133 1365.94 615.679Z" fill="black"></path>
  <path d="M1402.6 719.999V638.399H1418.28V719.999H1402.6ZM1456.84 667.679C1456.84 664.053 1456.25 660.853 1455.08 658.079C1454.01 655.306 1452.25 653.173 1449.8 651.679C1447.45 650.186 1444.3 649.439 1440.36 649.439C1436.94 649.439 1433.85 649.919 1431.08 650.879C1428.41 651.839 1426.12 653.226 1424.2 655.039C1422.28 656.853 1420.78 659.039 1419.72 661.599C1418.76 664.053 1418.28 666.826 1418.28 669.919H1412.84V648.639H1418.6C1420.73 645.546 1423.98 642.666 1428.36 639.999C1432.73 637.333 1438.44 635.999 1445.48 635.999C1450.6 635.999 1455.18 637.013 1459.24 639.039C1463.29 640.959 1466.54 643.946 1469 647.999C1471.45 651.946 1472.68 657.066 1472.68 663.359V719.999H1456.84V667.679Z" fill="black"></path>
  <path d="M1548.69 714.559V638.399H1564.37V713.599C1564.37 721.706 1562.83 728.373 1559.73 733.599C1556.64 738.933 1552.21 742.879 1546.45 745.439C1540.8 747.999 1534.03 749.279 1526.13 749.279C1518.35 749.279 1511.84 748.106 1506.61 745.759C1501.39 743.519 1497.33 740.426 1494.45 736.479C1491.68 732.533 1490.03 728.159 1489.49 723.359H1505.65C1506.19 725.813 1507.2 727.999 1508.69 729.919C1510.29 731.946 1512.48 733.546 1515.25 734.719C1518.13 735.893 1521.76 736.479 1526.13 736.479C1533.49 736.479 1539.09 734.719 1542.93 731.199C1546.77 727.786 1548.69 722.239 1548.69 714.559ZM1548.37 703.519C1546.13 706.719 1542.99 709.599 1538.93 712.159C1534.99 714.613 1529.76 715.839 1523.25 715.839C1516.43 715.839 1510.29 714.346 1504.85 711.359C1499.52 708.266 1495.25 703.786 1492.05 697.919C1488.85 691.946 1487.25 684.639 1487.25 675.999C1487.25 669.386 1488.16 663.626 1489.97 658.719C1491.79 653.706 1494.29 649.546 1497.49 646.239C1500.8 642.826 1504.64 640.266 1509.01 638.559C1513.39 636.853 1518.13 635.999 1523.25 635.999C1527.63 635.999 1531.36 636.586 1534.45 637.759C1537.65 638.933 1540.37 640.426 1542.61 642.239C1544.96 644.053 1546.88 645.973 1548.37 647.999H1549.65V703.519H1548.37ZM1526.13 649.119C1521.01 649.119 1516.75 650.293 1513.33 652.639C1510.03 654.986 1507.57 658.186 1505.97 662.239C1504.37 666.293 1503.57 670.879 1503.57 675.999C1503.57 681.119 1504.37 685.706 1505.97 689.759C1507.57 693.813 1510.03 697.013 1513.33 699.359C1516.75 701.706 1521.01 702.879 1526.13 702.879C1529.65 702.879 1532.8 702.346 1535.57 701.279C1538.35 700.106 1540.69 698.399 1542.61 696.159C1544.53 693.813 1545.97 690.986 1546.93 687.679C1548 684.373 1548.53 680.479 1548.53 675.999C1548.53 670.026 1547.63 665.066 1545.81 661.119C1544.11 657.066 1541.55 654.079 1538.13 652.159C1534.83 650.133 1530.83 649.119 1526.13 649.119Z" fill="black"></path>
  <path d="M1618.37 670.719C1622.1 671.679 1625.78 672.693 1629.41 673.759C1633.14 674.826 1636.5 676.319 1639.49 678.239C1642.58 680.159 1645.04 682.613 1646.85 685.599C1648.66 688.586 1649.57 692.319 1649.57 696.799C1649.57 702.133 1648.24 706.719 1645.57 710.559C1643.01 714.293 1639.22 717.173 1634.21 719.199C1629.2 721.226 1623.12 722.239 1615.97 722.239C1607.76 722.239 1600.88 720.959 1595.33 718.399C1589.89 715.839 1585.73 712.319 1582.85 707.839C1580.08 703.359 1578.58 698.346 1578.37 692.799H1594.21C1594.53 695.999 1595.38 698.879 1596.77 701.439C1598.26 703.999 1600.56 706.026 1603.65 707.519C1606.74 708.906 1610.8 709.599 1615.81 709.599C1620.4 709.599 1623.92 709.013 1626.37 707.839C1628.93 706.666 1630.69 705.173 1631.65 703.359C1632.72 701.439 1633.25 699.519 1633.25 697.599C1633.25 694.186 1632.18 691.679 1630.05 690.079C1627.92 688.373 1625.25 687.146 1622.05 686.399C1618.85 685.546 1615.44 684.746 1611.81 683.999C1608.29 683.146 1604.72 682.239 1601.09 681.279C1597.46 680.213 1594.16 678.773 1591.17 676.959C1588.18 675.146 1585.78 672.853 1583.97 670.079C1582.16 667.306 1581.25 663.786 1581.25 659.519C1581.25 654.826 1582.48 650.719 1584.93 647.199C1587.38 643.679 1590.9 640.959 1595.49 639.039C1600.18 637.013 1605.84 635.999 1612.45 635.999C1619.81 635.999 1625.94 637.173 1630.85 639.519C1635.86 641.866 1639.65 645.066 1642.21 649.119C1644.77 653.066 1646.21 657.386 1646.53 662.079H1630.69C1630.37 659.946 1629.62 657.866 1628.45 655.839C1627.38 653.813 1625.62 652.106 1623.17 650.719C1620.72 649.333 1617.2 648.639 1612.61 648.639C1609.09 648.639 1606.21 649.066 1603.97 649.919C1601.84 650.773 1600.24 651.946 1599.17 653.439C1598.1 654.933 1597.57 656.746 1597.57 658.879C1597.57 661.653 1598.48 663.733 1600.29 665.119C1602.1 666.506 1604.61 667.573 1607.81 668.319C1611.01 668.959 1614.53 669.759 1618.37 670.719Z" fill="black"></path>
  <path d="M1663.85 638.399H1679.53V719.999H1663.85V638.399ZM1709.29 651.999C1708.22 651.786 1707.26 651.679 1706.41 651.679C1705.66 651.573 1704.86 651.519 1704.01 651.519C1699.21 651.519 1694.94 652.639 1691.21 654.879C1687.58 657.013 1684.7 660.053 1682.57 663.999C1680.54 667.946 1679.53 672.533 1679.53 677.759H1671.85L1668.33 653.919H1679.85C1681.98 648.799 1684.76 644.639 1688.17 641.439C1691.69 638.133 1696.22 636.479 1701.77 636.479C1703.26 636.479 1704.6 636.533 1705.77 636.639C1706.94 636.639 1708.12 636.746 1709.29 636.959V651.999Z" fill="black"></path>
  <path d="M1741 722.239C1732.9 722.239 1726.39 720.106 1721.48 715.839C1716.68 711.466 1714.28 705.813 1714.28 698.879C1714.28 694.293 1715.08 690.453 1716.68 687.359C1718.39 684.266 1720.74 681.706 1723.72 679.679C1726.71 677.653 1730.28 675.999 1734.44 674.719C1738.71 673.439 1743.35 672.319 1748.36 671.359C1751.56 670.719 1754.44 670.133 1757 669.599C1759.56 669.066 1761.75 668.373 1763.56 667.519C1765.38 666.666 1766.71 665.599 1767.56 664.319C1768.52 663.039 1769 661.386 1769 659.359C1769 656.373 1767.88 653.813 1765.64 651.679C1763.51 649.546 1759.46 648.479 1753.48 648.479C1746.34 648.479 1741.43 649.653 1738.76 651.999C1736.1 654.346 1734.55 658.293 1734.12 663.839H1718.12C1718.44 658.613 1719.83 653.919 1722.28 649.759C1724.84 645.493 1728.68 642.133 1733.8 639.679C1739.03 637.119 1745.8 635.839 1754.12 635.839C1759.78 635.839 1764.84 636.746 1769.32 638.559C1773.91 640.266 1777.54 643.146 1780.2 647.199C1782.98 651.253 1784.36 656.853 1784.36 663.999V701.439C1784.36 704.426 1784.63 706.666 1785.16 708.159C1785.7 709.653 1786.71 710.399 1788.2 710.399C1788.42 710.399 1788.68 710.399 1789 710.399C1789.32 710.399 1789.7 710.346 1790.12 710.239V719.839C1788.74 720.159 1787.35 720.373 1785.96 720.479C1784.68 720.693 1783.4 720.799 1782.12 720.799C1778.28 720.799 1775.3 719.946 1773.16 718.239C1771.03 716.426 1769.75 713.173 1769.32 708.479H1769C1766.23 712.639 1762.5 715.999 1757.8 718.559C1753.22 721.013 1747.62 722.239 1741 722.239ZM1744.52 709.599C1749.22 709.599 1753.38 708.799 1757 707.199C1760.74 705.599 1763.67 703.199 1765.8 699.999C1767.94 696.799 1769 692.853 1769 688.159V676.479C1768.15 677.226 1766.82 677.973 1765 678.719C1763.3 679.359 1761.22 679.999 1758.76 680.639C1756.42 681.173 1753.86 681.759 1751.08 682.399C1746.28 683.359 1742.34 684.533 1739.24 685.919C1736.26 687.199 1734.07 688.799 1732.68 690.719C1731.4 692.533 1730.76 694.879 1730.76 697.759C1730.76 701.599 1731.83 704.533 1733.96 706.559C1736.2 708.586 1739.72 709.599 1744.52 709.599ZM1753.16 631.199C1749 631.199 1745.48 629.866 1742.6 627.199C1739.83 624.426 1738.44 620.853 1738.44 616.479C1738.44 612.106 1739.83 608.586 1742.6 605.919C1745.48 603.146 1749 601.759 1753.16 601.759C1757.54 601.759 1761.11 603.146 1763.88 605.919C1766.66 608.586 1768.04 612.106 1768.04 616.479C1768.04 620.853 1766.66 624.426 1763.88 627.199C1761.11 629.866 1757.54 631.199 1753.16 631.199ZM1753.16 624.159C1755.4 624.159 1757.22 623.466 1758.6 622.079C1759.99 620.693 1760.68 618.826 1760.68 616.479C1760.68 614.239 1759.99 612.426 1758.6 611.039C1757.22 609.546 1755.4 608.799 1753.16 608.799C1751.14 608.799 1749.43 609.546 1748.04 611.039C1746.66 612.426 1745.96 614.239 1745.96 616.479C1745.96 618.826 1746.66 620.693 1748.04 622.079C1749.43 623.466 1751.14 624.159 1753.16 624.159Z" fill="black"></path>
  <path d="M1862.35 605.599H1878.19V719.999H1862.35V605.599ZM1862.03 648.319H1866.35V710.399H1862.03C1860.65 712.213 1858.78 714.079 1856.43 715.999C1854.19 717.813 1851.42 719.306 1848.11 720.479C1844.91 721.653 1841.18 722.239 1836.91 722.239C1829.98 722.239 1823.74 720.533 1818.19 717.119C1812.75 713.706 1808.43 708.799 1805.23 702.399C1802.03 695.893 1800.43 688.159 1800.43 679.199C1800.43 672.479 1801.34 666.453 1803.15 661.119C1804.97 655.786 1807.53 651.253 1810.83 647.519C1814.25 643.786 1818.14 640.959 1822.51 639.039C1826.89 637.013 1831.69 635.999 1836.91 635.999C1841.18 635.999 1844.91 636.586 1848.11 637.759C1851.42 638.933 1854.19 640.479 1856.43 642.399C1858.78 644.213 1860.65 646.186 1862.03 648.319ZM1839.47 709.279C1843.1 709.279 1846.3 708.586 1849.07 707.199C1851.85 705.813 1854.19 703.786 1856.11 701.119C1858.14 698.453 1859.69 695.306 1860.75 691.679C1861.82 687.946 1862.35 683.786 1862.35 679.199C1862.35 673.013 1861.45 667.679 1859.63 663.199C1857.82 658.613 1855.21 655.146 1851.79 652.799C1848.38 650.346 1844.27 649.119 1839.47 649.119C1835.74 649.119 1832.43 649.919 1829.55 651.519C1826.67 653.119 1824.27 655.306 1822.35 658.079C1820.54 660.853 1819.15 664.053 1818.19 667.679C1817.23 671.306 1816.75 675.146 1816.75 679.199C1816.75 684.533 1817.55 689.493 1819.15 694.079C1820.86 698.666 1823.42 702.346 1826.83 705.119C1830.25 707.893 1834.46 709.279 1839.47 709.279Z" fill="black"></path>
  <path d="M1933.78 722.399C1925.14 722.399 1917.78 720.533 1911.7 716.799C1905.72 713.066 1901.19 707.946 1898.09 701.439C1895 694.826 1893.45 687.359 1893.45 679.039C1893.45 672.639 1894.36 666.826 1896.17 661.599C1898.09 656.266 1900.76 651.679 1904.18 647.839C1907.7 643.999 1911.91 641.066 1916.82 639.039C1921.83 636.906 1927.48 635.839 1933.78 635.839C1942.1 635.839 1949.08 637.546 1954.73 640.959C1960.49 644.373 1964.87 649.226 1967.85 655.519C1970.95 661.706 1972.49 669.013 1972.49 677.439C1972.49 678.506 1972.49 679.626 1972.49 680.799C1972.49 681.866 1972.44 682.719 1972.34 683.359H1901.3V671.039H1956.02C1956.02 667.839 1955.48 664.906 1954.42 662.239C1953.35 659.466 1951.8 657.066 1949.78 655.039C1947.86 653.013 1945.51 651.466 1942.73 650.399C1939.96 649.226 1936.82 648.639 1933.3 648.639C1928.71 648.639 1924.6 649.653 1920.97 651.679C1917.45 653.706 1914.68 656.533 1912.66 660.159C1910.63 663.786 1909.61 668.053 1909.61 672.959C1909.61 674.666 1909.61 676.373 1909.61 678.079C1909.61 679.679 1909.61 681.173 1909.61 682.559C1909.61 687.253 1910.52 691.626 1912.34 695.679C1914.15 699.733 1916.87 703.093 1920.49 705.759C1924.12 708.319 1928.65 709.599 1934.09 709.599C1938.89 709.599 1942.73 708.746 1945.61 707.039C1948.6 705.333 1950.84 703.359 1952.34 701.119C1953.94 698.773 1955 696.693 1955.54 694.879H1971.38C1969.99 700.106 1967.69 704.799 1964.49 708.959C1961.29 713.119 1957.14 716.426 1952.02 718.879C1947 721.226 1940.92 722.399 1933.78 722.399Z" fill="black"></path>
  <path d="M2008.17 612.159V697.439C2008.17 700.319 2008.44 702.506 2008.97 703.999C2009.61 705.493 2010.57 706.559 2011.85 707.199C2013.24 707.733 2015.05 707.999 2017.29 707.999C2018.57 707.999 2019.64 707.946 2020.49 707.839C2021.45 707.733 2022.62 707.573 2024.01 707.359V719.999C2021.98 720.319 2020.22 720.533 2018.73 720.639C2017.34 720.853 2015.74 720.959 2013.93 720.959C2009.56 720.959 2005.72 720.266 2002.41 718.879C1999.21 717.493 1996.76 715.093 1995.05 711.679C1993.34 708.159 1992.49 703.253 1992.49 696.959V612.159H2008.17ZM1980.65 638.399H2023.85V651.359H1980.65V638.399Z" fill="black"></path>
  <path d="M280 678.37V321.63C280 298.666 298.666 280 321.63 280C339.759 280 355.807 291.75 361.312 309.007L406.568 451.354C412.544 470.154 432.62 480.494 451.354 474.519C462.365 471.027 471.027 462.365 474.519 451.354L519.774 309.007C525.28 291.75 541.328 280 559.457 280H678.37C701.334 280 720 298.666 720 321.63C720 339.759 708.25 355.807 690.993 361.312L548.646 406.568C529.846 412.544 519.506 432.62 525.481 451.354C531.457 470.154 551.534 480.494 570.267 474.519C574.833 473.041 578.996 470.758 582.622 467.603L651.311 408.918C668.769 393.945 695.022 396.026 709.995 413.484C716.911 421.541 720.47 432.016 719.933 442.625L714.024 561.27C713.017 580.943 696.298 596.118 676.624 595.111C669.507 594.775 662.658 592.291 657.018 587.993L580.943 530.92C565.164 519.103 542.805 522.326 530.987 538.038C528.57 541.26 526.757 544.819 525.549 548.646L480.293 690.993C474.787 708.25 458.74 720 440.61 720H321.63C298.666 720 280 701.334 280 678.37Z" fill="black"></path>
</svg>
